<?xml version="1.0" encoding="utf-8"?>
<!-- Generator: Adobe Illustrator 19.2.1, SVG Export Plug-In . SVG Version: 6.00 Build 0)  -->
<svg version="1.1" id="Layer_1" xmlns="http://www.w3.org/2000/svg" xmlns:xlink="http://www.w3.org/1999/xlink" x="0px" y="0px"
	 viewBox="0 0 78 78" style="enable-background:new 0 0 78 78;" xml:space="preserve">
<style type="text/css">
	.st0{fill:#FFFFFF;}
	.st1{fill:#940E09;}
</style>
<g>
	<path class="st0" d="M63.9,7.8H14c-3.4,0-6.2,2.8-6.2,6.2v49.8c0,3.4,2.8,6.3,6.2,6.3h49.8c3.4,0,6.2-2.8,6.2-6.2V14
		C70.2,10.6,67.3,7.8,63.9,7.8L63.9,7.8z"/>
</g>
<g>
	<path class="st1" d="M70.1,0H7.8C3.5,0,0,3.5,0,7.8v62.3C0,74.4,3.5,78,7.8,78h62.3c4.3,0,7.8-3.5,7.8-7.8V7.8
		C78,3.5,74.4,0,70.1,0L70.1,0z M61.2,28.5c-0.4,17.9-11.7,30.4-28.8,31.2c-7,0.4-12.1-1.9-16.8-4.7c5.1,0.8,11.7-1.2,15.2-4.3
		c-5.1-0.4-8.2-3.1-9.7-7.4c1.6,0.4,3.1,0,4.3,0c-4.7-1.6-7.8-4.3-8.2-10.5c1.2,0.8,2.7,1.2,4.3,1.2c-3.5-2-5.8-9.4-3.1-14
		c5.1,5.5,11.3,10.1,21.4,10.9c-2.8-11,12-16.9,17.9-9.5c2.7-0.4,4.7-1.6,6.6-2.3c-0.8,2.7-2.3,4.3-4.3,5.8c1.9-0.4,3.9-0.8,5.5-1.6
		C65.1,25.3,63.1,26.9,61.2,28.5L61.2,28.5z"/>
</g>
</svg>
