<?xml version="1.0" encoding="utf-8"?>
<!-- Generator: Adobe Illustrator 19.2.1, SVG Export Plug-In . SVG Version: 6.00 Build 0)  -->
<svg version="1.1" id="Layer_1" xmlns="http://www.w3.org/2000/svg" xmlns:xlink="http://www.w3.org/1999/xlink" x="0px" y="0px"
	 viewBox="0 0 77.9 77.9" style="enable-background:new 0 0 77.9 77.9;" xml:space="preserve">
<style type="text/css">
	.st0{fill:#FFFFFF;}
	.st1{fill:#940E09;}
</style>
<g>
	<path class="st0" d="M67.1,3.7H10.7c-3.9,0-7.1,3.2-7.1,7.1v56.4c0,3.9,3.2,7.1,7.1,7.1h56.4c3.9,0,7.1-3.2,7.1-7.1V10.8
		C74.1,6.9,71,3.7,67.1,3.7L67.1,3.7z"/>
</g>
<g>
	<path class="st1" d="M10,0h57.9c5.5,0,10,4.1,10,10v57.9c0,5.9-4.5,10-10,10H10c-5.5,0-10-4.1-10-10V10C0,4.1,4.5,0,10,0L10,0z
		 M56.8,8.7c-1.9,0-3.5,1.6-3.5,3.5v8.4c0,1.9,1.6,3.5,3.5,3.5h8.8c1.9,0,3.5-1.6,3.5-3.5v-8.4c0-1.9-1.6-3.5-3.5-3.5
		C65.6,8.7,56.8,8.7,56.8,8.7z M69.1,32.9h-6.9c0.6,2.1,1,4.4,1,6.7c0,13-10.8,23.5-24.2,23.5S14.8,52.6,14.8,39.6
		c0-2.3,0.4-4.6,1-6.7H8.7v32.9c0,1.7,1.4,3.1,3.1,3.1H66c1.7,0,3.1-1.4,3.1-3.1V32.9z M39,23.6c-8.6,0-15.6,6.8-15.6,15.2
		S30.4,54,39,54s15.6-6.8,15.6-15.2S47.7,23.6,39,23.6L39,23.6z"/>
</g>
</svg>
