<?xml version="1.0" encoding="utf-8"?>
<!-- Generator: Adobe Illustrator 19.2.1, SVG Export Plug-In . SVG Version: 6.00 Build 0)  -->
<svg version="1.1" id="Layer_1" xmlns="http://www.w3.org/2000/svg" xmlns:xlink="http://www.w3.org/1999/xlink" x="0px" y="0px"
	 viewBox="0 0 78 78" style="enable-background:new 0 0 78 78;" xml:space="preserve">
<style type="text/css">
	.st0{fill:#FFFFFF;}
	.st1{fill:#940E09;}
</style>
<g>
	<path class="st0" d="M67.2,2.2H12.7c-4.3,0-7.8,3.5-7.8,7.8v60.1c0,4.3,3.5,7.9,7.8,7.9h54.5c4.3,0,7.8-3.5,7.8-7.8V10
		C75.1,5.7,71.5,2.2,67.2,2.2L67.2,2.2z"/>
</g>
<path class="st1" d="M70.1,0H7.8C3.5,0,0,3.5,0,7.8v62.3C0,74.4,3.5,78,7.8,78h33.8V48.1H31.5V36.4h10.1v-8.6c0-10,6.1-15.4,15-15.4
	c4.3,0,7.9,0.3,9,0.5v10.4h-6.2c-4.8,0-5.8,2.3-5.8,5.7v7.4h11.5L63.7,48h-10v30h16.5c4.3,0,7.8-3.5,7.8-7.8V7.8
	C78,3.5,74.4,0,70.1,0z"/>
</svg>
