<?xml version="1.0" encoding="utf-8"?>
<!-- Generator: Adobe Illustrator 24.0.1, SVG Export Plug-In . SVG Version: 6.00 Build 0)  -->
<svg version="1.1" id="Layer_1" xmlns="http://www.w3.org/2000/svg" xmlns:xlink="http://www.w3.org/1999/xlink" x="0px" y="0px"
	 viewBox="0 0 148 78" style="enable-background:new 0 0 148 78;" xml:space="preserve">
<style type="text/css">
	.st0{fill:#940E09;}
	.st1{fill:none;stroke:#FFFFFF;stroke-width:2.5;stroke-linecap:round;stroke-linejoin:round;stroke-miterlimit:10;}
	.st2{fill:#FFFFFF;}
</style>
<g id="Shape">
	<g>
		<g>
			<path class="st0" d="M140.1,0H7.8C3.5,0,0,3.5,0,7.8v62.3C0,74.4,3.5,78,7.8,78h132.3c4.3,0,7.8-3.5,7.8-7.8V7.8
				C148,3.5,144.4,0,140.1,0L140.1,0z"/>
		</g>
		<g>
			<path class="st1" d="M42.6,10.8H18c-2.7,0-4.9,2.2-4.9,4.9v46.6c0,2.7,2.2,4.9,4.9,4.9h24.5c2.7,0,4.9-2.2,4.9-4.9V15.7
				C47.5,13,45.3,10.8,42.6,10.8z"/>
			<polyline class="st1" points="20.5,10.8 24.2,15.7 30.3,15.7 			"/>
			<polyline class="st1" points="40.1,10.8 36.4,15.7 30.3,15.7 			"/>
			<line class="st1" x1="29.1" y1="62.3" x2="31.5" y2="62.3"/>
		</g>
		<g>
			<path class="st2" d="M61.7,33.2c-1.1-0.6-2-1.5-2.6-2.7s-0.9-2.5-0.9-4.1c0-1.5,0.3-2.9,1-4c0.7-1.2,1.6-2.1,2.7-2.7
				c1.2-0.6,2.5-0.9,4-0.9c0.8,0,1.5,0.1,2.2,0.2s1.3,0.4,1.9,0.6l-0.3,2.6c-1.2-0.6-2.5-0.8-3.8-0.8c-1.6,0-2.8,0.5-3.6,1.4
				s-1.2,2.1-1.2,3.6c0,1.6,0.4,2.8,1.2,3.7c0.8,0.9,1.9,1.4,3.4,1.4c0.6,0,1.3-0.1,2-0.2v-2.6h-2v-2.2h4.7V33
				c-0.5,0.3-1.2,0.6-2.1,0.8c-0.8,0.2-1.8,0.3-2.7,0.3C64.1,34.2,62.8,33.8,61.7,33.2z"/>
			<path class="st2" d="M73.1,19.1h9.4v2.6h-6.7v3.1H81v2.6h-5.2v3.8h6.9v2.6h-9.6C73.1,33.8,73.1,19.1,73.1,19.1z"/>
			<path class="st2" d="M87.9,21.7h-4.2v-2.6h11v2.6h-4.2v12.1h-2.7L87.9,21.7L87.9,21.7z"/>
			<path class="st2" d="M104.3,21.7h-4.2v-2.6h11v2.6H107v12.1h-2.7V21.7z"/>
			<path class="st2" d="M113.1,19.1h2.7V25h6.7v-5.8h2.7v14.7h-2.7v-6.4h-6.7v6.4h-2.7V19.1z"/>
			<path class="st2" d="M128.5,19.1h9.4v2.6h-6.7v3.1h5.2v2.6h-5.2v3.8h6.9v2.6h-9.6L128.5,19.1L128.5,19.1z"/>
			<path class="st2" d="M66.8,55.6h-5.4l-1.2,3.5h-2.6l5.2-14.7h2.5l5.2,14.7H68L66.8,55.6z M65.9,53.3L64.1,48l-1.9,5.3H65.9z"/>
			<path class="st2" d="M72.3,44.4h5.2c3.5,0,5.2,1.6,5.2,4.8c0,1.6-0.4,2.9-1.3,3.7s-2.2,1.2-3.9,1.2H75v5.1h-2.7V44.4z M77.3,51.8
				c0.9,0,1.6-0.2,2.1-0.6c0.5-0.4,0.7-1.1,0.7-1.9s-0.2-1.5-0.7-1.9s-1.2-0.6-2.1-0.6H75v5.1L77.3,51.8L77.3,51.8z"/>
			<path class="st2" d="M84.8,44.4H90c3.5,0,5.2,1.6,5.2,4.8c0,1.6-0.4,2.9-1.3,3.7s-2.2,1.2-3.9,1.2h-2.6v5.1h-2.7V44.4H84.8z
				 M89.8,51.8c0.9,0,1.6-0.2,2.1-0.6c0.5-0.4,0.7-1.1,0.7-1.9s-0.2-1.5-0.7-1.9s-1.2-0.6-2.1-0.6h-2.2v5.1L89.8,51.8L89.8,51.8z"/>
		</g>
	</g>
</g>
<g id="Twitter">
</g>
<g id="Facebook">
</g>
<g id="Instagram">
</g>
</svg>
